<?xml version="1.0" standalone="no"?>
<!DOCTYPE svg PUBLIC "-//W3C//DTD SVG 20010904//EN"
 "http://www.w3.org/TR/2001/REC-SVG-20010904/DTD/svg10.dtd">
<svg version="1.0" xmlns="http://www.w3.org/2000/svg"
 width="1024.000000pt" height="1024.000000pt" viewBox="0 0 1024.000000 1024.000000"
 preserveAspectRatio="xMidYMid meet">
<metadata>
Created by potrace 1.11, written by Peter Selinger 2001-2013
</metadata>
<g transform="translate(0.000000,1024.000000) scale(0.100000,-0.100000)"
fill="#000000" stroke="none">
<path d="M5068 8805 c-24 -14 -363 -493 -354 -502 1 -2 48 2 102 8 128 15 480
15 608 0 54 -6 101 -10 102 -8 2 2 -70 112 -161 245 -166 243 -193 273 -247
272 -13 -1 -35 -7 -50 -15z"/>
<path d="M4925 8184 c-388 -31 -745 -120 -1060 -263 l-80 -36 -3 -88 c-9 -268
-166 -577 -431 -851 -123 -126 -213 -202 -331 -278 -209 -136 -398 -204 -585
-210 l-80 -3 -23 -50 c-128 -271 -220 -602 -264 -950 -18 -148 -15 -551 5
-708 42 -317 128 -626 248 -888 l31 -66 89 -7 c144 -11 267 -47 424 -125 492
-246 887 -768 921 -1220 l7 -89 66 -31 c263 -120 562 -203 886 -247 181 -24
570 -24 750 0 310 42 592 119 849 232 l103 45 7 87 c16 200 82 379 214 582 76
118 152 208 278 331 272 263 565 413 853 435 l90 7 45 103 c113 257 190 539
232 849 24 181 24 569 0 750 -42 310 -119 592 -232 849 l-45 103 -114 11
c-200 19 -408 104 -615 250 -125 88 -364 327 -452 452 -146 207 -231 415 -250
615 l-11 114 -103 45 c-260 114 -552 194 -845 231 -121 15 -473 27 -574 19z
m395 -2189 c175 -41 321 -126 451 -263 137 -144 215 -312 241 -515 22 -174
-21 -380 -115 -547 -55 -99 -215 -261 -313 -319 -131 -77 -323 -131 -464 -131
-141 0 -317 48 -448 122 -105 59 -271 224 -329 328 -93 167 -136 371 -114 547
25 202 103 371 240 515 149 158 311 243 526 279 73 12 239 3 325 -16z"/>
<path d="M4981 5870 c-160 -34 -281 -100 -396 -215 -143 -142 -212 -296 -222
-495 -12 -228 60 -414 221 -576 94 -93 173 -143 301 -187 84 -29 100 -31 230
-32 161 0 231 16 370 88 112 58 244 190 302 302 71 137 88 209 88 365 0 156
-17 228 -88 365 -58 112 -190 244 -302 302 -127 65 -202 85 -340 89 -66 2
-140 -1 -164 -6z"/>
<path d="M2185 8123 c-39 -10 -65 -44 -65 -87 0 -23 77 -355 172 -738 l173
-698 31 0 c16 0 62 8 100 18 213 57 438 198 636 399 107 108 150 160 228 276
93 139 172 333 182 446 l3 35 -689 172 c-724 181 -739 184 -771 177z"/>
<path d="M7306 7952 l-708 -177 6 -56 c6 -60 53 -204 93 -284 121 -240 357
-498 603 -657 47 -31 108 -67 135 -81 80 -40 224 -87 284 -93 l56 -6 177 713
c115 462 175 723 172 741 -8 34 -41 64 -79 72 -21 4 -249 -49 -739 -172z"/>
<path d="M1695 5369 c-227 -156 -275 -199 -275 -246 0 -55 29 -81 272 -247
133 -91 243 -164 245 -162 2 2 -2 57 -8 122 -11 117 -6 573 7 657 3 20 2 37
-2 36 -5 -1 -112 -72 -239 -160z"/>
<path d="M8304 5489 c14 -105 18 -520 7 -644 -7 -70 -10 -129 -8 -131 2 -2
112 71 245 162 361 247 360 242 25 472 -120 82 -231 157 -247 167 l-28 19 6
-45z"/>
<path d="M2464 3636 c-26 -77 -344 -1388 -344 -1421 0 -63 32 -95 92 -95 24 0
356 78 738 173 l695 172 -3 35 c-12 134 -116 364 -241 531 -233 313 -593 563
-875 607 -41 7 -59 6 -62 -2z"/>
<path d="M7690 3634 c-225 -48 -451 -183 -673 -402 -201 -198 -342 -423 -399
-636 -10 -38 -18 -83 -18 -100 l0 -31 693 -173 c404 -101 711 -172 738 -172
52 0 83 25 93 75 6 34 -343 1447 -359 1451 -6 1 -39 -4 -75 -12z"/>
<path d="M4715 1929 c5 -8 80 -119 167 -247 241 -351 235 -351 475 0 88 128
163 239 168 247 7 12 1 13 -34 7 -159 -25 -570 -25 -740 0 -36 5 -42 4 -36 -7z"/>
</g>
</svg>
